<svg width="30" height="30" viewBox="0 0 30 30" fill="none" xmlns="http://www.w3.org/2000/svg">
<path d="M8.83008 0C0.641577 0 0 0.640828 0 8.83008V21.1699C0 29.3584 0.641578 30 8.83008 30H21.1699C29.3584 30 30 29.3592 30 21.1699V8.83008C30 0.640828 29.3592 0 21.1699 0H8.83008ZM6.87598 3H23.124C26.7188 3 27 3.28123 27 6.87598V23.124C27 26.7188 26.718 27 23.124 27H19.9629V18.0293H23.5151L24.0747 14.0376H19.9629C19.9629 14.0376 19.9569 11.6994 19.9629 11.1167C19.9749 9.97595 20.9281 9.39898 21.7471 9.40723C22.5661 9.41623 24.2622 9.41016 24.2622 9.41016V5.73047C24.2622 5.73047 22.7939 5.53968 21.2534 5.52393C19.9589 5.51043 18.5295 5.86143 17.376 7.02393C16.2022 8.20593 16.0171 9.9669 15.9946 12.1187C15.9879 12.7404 15.9946 14.0361 15.9946 14.0361H12.5186V18.0278H15.9946V27H6.87598C3.28123 27 3 26.718 3 23.124V6.87598C3 3.28123 3.28123 3 6.87598 3Z" fill="#6CEA6C"/>
</svg>
