<svg width="30" height="30" viewBox="0 0 30 30" fill="none" xmlns="http://www.w3.org/2000/svg">
<path d="M8.83008 0C0.641577 0 0 0.640828 0 8.83008V21.1699C0 29.3584 0.641578 30 8.83008 30H21.1699C29.3584 30 30 29.3592 30 21.1699V8.83008C30 0.640828 29.3592 0 21.1699 0H8.83008ZM6.87598 3H23.124C26.7188 3 27 3.28123 27 6.87598V23.124C27 26.7188 26.718 27 23.124 27H6.87598C3.28123 27 3 26.718 3 23.124V6.87598C3 3.28123 3.28123 3 6.87598 3ZM7.87646 4.87793C6.65471 4.87793 5.66455 5.86813 5.66455 7.08838C5.66455 8.30863 6.65396 9.30029 7.87646 9.30029C9.09521 9.30029 10.0854 8.30938 10.0854 7.08838C10.0854 5.86963 9.09521 4.87793 7.87646 4.87793ZM19.4502 10.7417C17.6052 10.7417 16.3676 11.7541 15.8613 12.7134H15.8086V11.0464H12.1714V23.25H15.9609V17.2119C15.9609 15.6197 16.2655 14.0786 18.2388 14.0786C20.1843 14.0786 20.209 15.9007 20.209 17.3159V23.25H24V16.5557C24 13.2692 23.2909 10.7417 19.4502 10.7417ZM5.97949 11.0464V23.25H9.77197V11.0464H5.97949Z" fill="#6CEA6C"/>
</svg>
