<svg width="37" height="30" viewBox="0 0 37 30" fill="none" xmlns="http://www.w3.org/2000/svg">
<path d="M36.75 3.83545C35.76 5.3152 34.5068 6.6157 33.063 7.6582C33.0765 7.97545 33.084 8.29345 33.084 8.6137C33.084 18.3734 25.6575 29.6272 12.072 29.6272C7.9005 29.6272 2.4645 28.1662 0.750748 26.3099C1.32975 26.3789 1.91775 26.4134 2.51325 26.4134C5.9745 26.4134 9.159 25.2322 11.6857 23.2514C8.454 23.1922 5.72625 21.0554 4.7865 18.1214C6.2565 18.3524 8.12175 17.9939 8.12175 17.9939C8.12175 17.9939 2.34675 17.0024 2.1975 10.6597C3.867 11.6279 5.5425 11.5829 5.5425 11.5829C5.5425 11.5829 2.21175 9.53245 2.25825 5.4367C2.286 3.02095 3.2565 1.72195 3.2565 1.72195C9.567 9.4927 18.48 9.43945 18.48 9.43945C18.48 9.43945 18.2887 8.3362 18.2887 7.7572C18.2887 3.67945 21.5947 0.371948 25.674 0.371948C27.798 0.371948 29.7172 1.26895 31.0642 2.7052C32.748 2.37295 34.329 1.75795 35.7555 0.911948C35.1113 3.49195 32.5088 4.99795 32.5088 4.99795C32.5088 4.99795 34.7355 4.7512 36.75 3.83545ZM12.1057 26.6272C18.3562 26.9092 29.4728 21.8317 30.084 8.6137C30.0893 8.4937 30.108 8.27845 30.0968 8.0842C30.0818 7.8337 30.2063 7.6672 30.3105 7.5577C30.4815 7.37695 30.6668 7.1572 30.843 6.82945C30.9923 6.5527 30.9008 6.43495 30.7163 6.4027C30.591 6.38095 30.4613 6.34945 30.3173 6.31795C30.06 6.2617 29.9482 6.02095 30.0697 5.77645C30.1522 5.6107 30.2625 5.3812 30.3435 5.14195C30.4238 4.90645 30.3195 4.85245 30.1403 4.88395C29.9918 4.90945 29.82 4.9417 29.6663 4.9702C29.4278 5.01445 29.181 4.96645 28.9478 4.6987C28.0433 3.6577 27.0637 3.3727 25.6732 3.3727C23.2387 3.3727 21.288 5.33995 21.288 7.75795C21.288 8.42395 21.4597 9.2242 21.5797 9.99745C21.804 11.4412 21.165 12.8032 18.9518 12.6307C15.7005 12.3772 10.698 11.6654 6.89025 8.8552C7.269 9.60445 8.17875 10.7624 8.901 11.6317C9.462 12.3067 9.28725 13.3522 8.562 13.6927C8.19825 13.8637 7.75725 14.0062 7.25025 14.0984C8.58075 15.1747 10.1085 15.8722 11.2777 16.3687C12.7432 16.9904 13.1467 18.0007 12.2467 19.0072C11.9235 19.3687 11.5057 19.7339 10.9657 20.0587C11.6152 20.5072 12.7042 20.8829 13.95 21.0854C15.2077 21.2902 16.035 22.6709 14.742 24.3839C14.1127 25.2179 13.2127 26.0189 12.1057 26.6272Z" fill="#6CEA6C"/>
</svg>
