<svg
      width="182"
      height="194"
      viewBox="0 0 182 194"
      fill="none"
      xmlns="http://www.w3.org/2000/svg"
    >
      <path
        d="M22.4713 65.3345C21.0084 64.8871 19.5375 64.4718 18.088 63.9868C13.4235 62.4168 8.98662 60.3993 5.24639 57.1199C2.80023 54.9739 0.943511 52.4045 0.271019 49.1492C-0.524718 45.2964 0.480005 41.8187 2.65288 38.6278C5.37767 34.6303 9.11255 31.7555 13.1877 29.2906C19.8135 25.2797 26.9965 22.5603 34.3859 20.3526C40.4169 18.5495 46.547 17.1616 52.7548 16.1167C53.3228 16.0203 53.6819 15.7872 53.99 15.2567C55.4743 12.706 57.6257 10.7796 60.0076 9.10243C65.4384 5.27915 71.531 3.04197 77.98 1.68091C83.0786 0.603857 88.2442 0.191249 93.4419 0.421664C102.736 0.831589 111.61 2.85174 119.677 7.69315C123.066 9.7267 126.123 12.1461 128.133 15.672C128.278 15.9238 128.746 16.0578 129.089 16.1194C139.932 18.0592 150.555 20.7545 160.672 25.2047C166.06 27.5759 171.186 30.3864 175.577 34.3785C177.731 36.3397 179.609 38.5259 180.791 41.2293C183.031 46.352 182.141 51.3194 178.27 55.3489C175.502 58.2291 172.115 60.1555 168.474 61.6827C167.636 62.0337 166.784 62.3579 165.846 62.5454C166.245 62.2668 166.644 61.9881 167.041 61.7068C170.026 59.5875 172.866 57.3048 175.084 54.3523C176.215 52.8465 177.077 51.1988 177.391 49.3206C177.803 46.8477 176.951 44.7472 175.384 42.8878C173.032 40.0933 169.961 38.2848 166.738 36.7201C160.367 33.631 153.588 31.7716 146.716 30.231C138.861 28.4707 130.906 27.316 122.903 26.5229C109.44 25.1913 95.9417 24.6876 82.4168 25.186C76.4796 25.403 70.5343 25.6816 64.6159 26.1934C51.1312 27.3588 37.7725 29.304 24.8397 33.4809C19.8724 35.0858 15.0096 36.9907 10.7951 40.1603C9.36976 41.232 8.06229 42.5475 6.96379 43.9568C5.10975 46.336 5.10439 49.0045 6.43597 51.6569C7.91224 54.5988 10.1816 56.9083 12.7912 58.8052C15.6687 60.8977 18.7337 62.733 21.7211 64.6754C21.9863 64.8469 22.265 64.9969 22.5356 65.1577C22.5195 65.2166 22.4954 65.2756 22.4713 65.3345Z"
        fill="#6CEA6C"
      />
      <path
        d="M99.0228 121.623C101.474 122.523 103.813 123.276 106.053 124.251C107.028 124.677 107.896 125.468 108.655 126.25C111.023 128.694 113.298 131.226 115.642 133.69C116.759 134.867 117.962 135.957 119.101 137.114C119.913 137.937 119.87 138.374 118.989 139.124C117.086 140.748 115.867 140.788 113.885 139.22C112.783 138.35 111.655 137.49 110.68 136.485C109.56 135.33 108.596 134.025 107.572 132.777C107.077 132.174 106.632 131.526 106.112 130.944C105.75 130.542 105.381 130.596 105.067 131.089C104.491 131.997 104.58 132.841 105.123 133.741C107.473 137.621 109.82 141.506 112.119 145.415C113.697 148.099 115.042 150.894 115.476 154.029C115.599 154.91 115.741 155.8 115.731 156.684C115.645 162.953 115.554 169.223 115.372 175.492C115.342 176.505 114.932 177.539 114.538 178.498C114.185 179.361 113.386 179.835 112.481 180.066C110.846 180.481 109.737 179.84 109.689 178.193C109.622 175.768 109.724 173.333 109.852 170.908C110.045 167.243 110.493 163.564 109.405 159.969C109.043 158.768 108.467 157.616 107.862 156.512C107.323 155.529 106.551 155.483 105.734 156.271C104.668 157.295 104.17 158.605 104.062 160.038C103.947 161.573 103.912 163.114 103.904 164.655C103.88 169.089 103.918 173.523 103.864 177.957C103.851 179.053 103.679 180.167 103.419 181.234C102.825 183.672 100.992 184.832 98.7281 185.429C97.8332 185.665 97.4045 185.277 97.3697 184.36C97.1714 179.147 97.0776 173.927 96.7454 168.724C96.4534 164.172 96.014 159.62 95.4165 155.095C94.7601 150.122 93.8572 145.184 93.0373 140.236C92.8846 139.306 92.6301 138.395 92.405 137.479C92.1049 136.252 91.4887 135.89 90.2563 136.284C88.287 136.914 86.7545 138.197 85.4443 139.735C83.7805 141.688 83.2018 144.078 82.9714 146.559C82.8133 148.252 82.7945 149.959 82.6311 151.649C82.5105 152.895 82.0256 154.004 80.9539 154.763C79.1401 156.046 77.1387 155.25 76.8547 153.053C76.7019 151.888 76.718 150.674 76.8466 149.503C77.1654 146.607 77.4762 143.703 78.0067 140.841C78.6069 137.605 80.1528 134.754 82.0953 132.107C83.0196 130.845 83.8716 129.524 84.6941 128.193C85.1121 127.517 85.3961 126.757 85.7899 125.939C84.9594 125.763 84.2547 125.629 83.5555 125.46C82.3337 125.162 81.1816 124.702 80.26 123.815C78.5881 122.204 76.8654 120.637 75.3007 118.925C74.1352 117.65 73.3797 116.098 73.5806 114.274C73.6422 113.722 73.7387 113.103 74.0334 112.661C75.2149 110.893 76.3268 109.039 77.7495 107.477C80.0296 104.977 82.9419 104.733 86.0284 105.81C88.788 106.775 90.7921 108.744 92.6113 110.914C94.2082 112.819 95.73 114.788 97.2705 116.739C98.4387 118.212 99.3336 119.79 99.0228 121.623Z"
        fill="#FEFFFE"
      />
      <path
        d="M46.6328 193.984C46.7694 192.114 46.898 190.241 47.048 188.371C47.2302 186.085 47.4258 183.8 47.6241 181.515C47.9322 177.967 48.2483 174.417 48.5591 170.87C48.7895 168.236 49.0119 165.6 49.2557 162.969C49.5558 159.746 49.872 156.523 50.1828 153.299C50.4668 150.344 50.7454 147.389 51.0374 144.436C51.3911 140.865 51.7474 137.291 52.1172 133.722C52.5057 129.963 52.9075 126.204 53.3068 122.445C53.714 118.576 54.1132 114.707 54.5339 110.841C55.0911 105.74 55.6591 100.639 56.2352 95.5402C56.7898 90.6291 57.3605 85.718 57.9285 80.807C58.4375 76.4076 58.9493 72.0083 59.4744 67.609C60.0344 62.9176 60.68 58.2343 61.1409 53.5349C61.2748 52.1577 61.8911 51.3674 62.9253 50.6145C69.3153 45.958 76.4421 43.0939 84.2333 41.9177C97.0107 39.9886 108.585 43.2224 119.235 50.2662C119.281 50.2957 119.323 50.3332 119.372 50.3546C121.419 51.2495 122.145 52.9053 122.592 55.0353C125.129 67.1026 127.881 79.1244 130.424 91.1891C132.87 102.788 135.152 114.418 137.508 126.035C137.54 126.191 137.588 126.343 137.513 126.534C137.197 125.491 136.856 124.457 136.567 123.41C130.381 100.952 124.197 78.4921 118.035 56.0266C117.834 55.2898 117.472 54.8316 116.816 54.4565C111.583 51.4558 106.096 49.1222 100.127 48.0531C90.5028 46.3304 81.3076 47.6888 72.5679 52.0452C70.9282 52.8624 69.3742 53.8457 67.7747 54.7432C67.3139 55.0004 67.1156 55.3407 67.0459 55.8926C66.1163 63.1507 65.1598 70.4061 64.1952 77.6615C63.2655 84.649 62.3385 91.6338 61.374 98.6159C60.3934 105.7 59.3699 112.781 58.3545 119.86C57.3739 126.697 56.4066 133.535 55.3778 140.364C54.1855 148.281 52.9477 156.19 51.6992 164.099C50.6248 170.913 49.521 177.723 48.4091 184.531C47.892 187.693 47.3213 190.844 46.7721 194C46.7212 193.995 46.6756 193.989 46.6328 193.984Z"
        fill="#6CEA6C"
      />
    </svg>