<svg
      width="281"
      height="57"
      viewBox="0 0 281 57"
      fill="none"
      xmlns="http://www.w3.org/2000/svg"
    >
      <path
        d="M0 14.1012C0.157368 14.08 0.314737 14.0375 0.472105 14.0375C10.1183 14.0332 19.7689 14.0332 29.4151 14.0332C29.5597 14.0332 29.7043 14.0332 29.8787 14.0332C29.8787 16.0492 29.8787 18.027 29.8787 20.0472C21.9252 20.0472 13.9888 20.0472 6.02677 20.0472C6.02677 22.0547 6.02677 24.0154 6.02677 26.023C13.9845 26.023 21.921 26.023 29.8829 26.023C29.8829 31.9987 29.8829 37.9319 29.8829 43.9161C29.7511 43.9247 29.6107 43.9417 29.4704 43.9417C19.7944 43.9417 10.1226 43.9417 0.446587 43.9417C0.297725 43.9417 0.153119 43.9161 0.00425735 43.9034C0.00425735 41.9341 0.00425735 39.9607 0.00425735 37.9915C0.187145 37.9702 0.374287 37.9276 0.557174 37.9276C8.17464 37.9234 15.7879 37.9234 23.4053 37.9234C23.5755 37.9234 23.7498 37.9234 23.9285 37.9234C23.9285 35.9116 23.9285 33.9551 23.9285 31.9604C23.7073 31.9604 23.5202 31.9604 23.333 31.9604C15.7581 31.9604 8.18314 31.9604 0.603953 31.9604C0.404053 31.9604 0.204153 31.9349 0 31.9221C0 25.9804 0 20.043 0 14.1012Z"
        fill="white"
      />
      <path
        d="M151.609 56.6971C151.609 53.8645 151.609 51.0361 151.609 48.178C152.183 48.178 152.732 48.178 153.315 48.178C153.315 50.4152 153.315 52.6396 153.315 54.8938C153.893 54.8938 154.433 54.8938 155.012 54.8938C155.012 52.6694 155.012 50.4492 155.012 48.1908C155.59 48.1908 156.13 48.1908 156.726 48.1908C156.726 50.4237 156.726 52.6523 156.726 54.9065C157.309 54.9065 157.84 54.9065 158.414 54.9065C158.414 52.6608 158.414 50.4279 158.414 48.178C159.006 48.178 159.55 48.178 160.12 48.178C160.12 51.0361 160.12 53.8645 160.12 56.6971C157.287 56.6971 154.446 56.6971 151.609 56.6971Z"
        fill="#6CEA6C"
      />
      <path
        d="M137.374 14.0547C147.322 14.0547 157.232 14.0547 167.18 14.0547C167.18 16.0324 167.18 18.0059 167.18 20.0432C159.244 20.0432 151.299 20.0432 143.324 20.0432C143.324 22.055 143.324 24.0072 143.324 25.9977C151.265 25.9977 159.206 25.9977 167.18 25.9977C167.18 27.9882 167.18 29.9361 167.18 31.9436C159.244 31.9436 151.299 31.9436 143.324 31.9436C143.324 33.9554 143.324 35.9076 143.324 37.8981C151.265 37.8981 159.206 37.8981 167.18 37.8981C167.18 39.9141 167.18 41.8876 167.18 43.8993C157.258 43.8993 147.326 43.8993 137.374 43.8993C137.374 33.9639 137.374 24.0369 137.374 14.0547Z"
        fill="white"
      />
      <path
        d="M171.727 14.0547C181.662 14.0547 191.572 14.0547 201.521 14.0547C201.521 16.0324 201.521 18.0059 201.521 20.0347C193.584 20.0347 185.639 20.0347 177.664 20.0347C177.664 22.0464 177.664 24.0114 177.664 26.0062C185.609 26.0062 193.55 26.0062 201.521 26.0062C201.521 31.9946 201.521 37.9491 201.521 43.9206C191.594 43.9206 181.667 43.9206 171.731 43.9206C171.731 41.9216 171.731 39.9439 171.731 37.9279C179.68 37.9279 187.604 37.9279 195.562 37.9279C195.562 35.9331 195.562 33.9724 195.562 31.9606C187.613 31.9606 179.676 31.9606 171.731 31.9606C171.727 25.9679 171.727 20.0219 171.727 14.0547Z"
        fill="white"
      />
      <path
        d="M98.5508 14.0588C98.5508 24.0113 98.5508 33.9383 98.5508 43.9035C96.5773 43.9035 94.6038 43.9035 92.592 43.9035C92.592 39.9225 92.592 35.9628 92.592 31.9818C86.6035 31.9818 80.6533 31.9818 74.6606 31.9818C74.6606 35.967 74.6606 39.9268 74.6606 43.9163C72.6573 43.9163 70.6923 43.9163 68.7018 43.9163C68.7018 33.9595 68.7018 24.0241 68.7018 14.0588C78.6543 14.0588 88.577 14.0588 98.5508 14.0588ZM74.6733 25.9933C80.6661 25.9933 86.6163 25.9933 92.5708 25.9933C92.5708 24.0071 92.5708 22.0421 92.5708 20.0856C86.5908 20.0856 80.6405 20.0856 74.6733 20.0856C74.6733 22.0676 74.6733 24.0156 74.6733 25.9933Z"
        fill="white"
      />
      <path
        d="M280.613 32.0244C272.676 32.0244 264.723 32.0244 256.74 32.0244C256.74 35.9969 256.74 39.9353 256.74 43.9078C254.715 43.9078 252.729 43.9078 250.721 43.9078C250.721 33.9809 250.721 24.0709 250.721 14.0972C260.678 14.0972 270.609 14.0972 280.617 14.0972C280.613 20.0261 280.613 25.9891 280.613 32.0244ZM256.753 20.0814C256.753 22.0677 256.753 24.0241 256.753 25.9934C262.715 25.9934 268.649 25.9934 274.582 25.9934C274.582 24.0029 274.582 22.0421 274.582 20.0814C268.627 20.0814 262.703 20.0814 256.753 20.0814Z"
        fill="white"
      />
      <path
        d="M64.236 32.0117C56.2868 32.0117 48.3333 32.0117 40.3331 32.0117C40.3331 35.9842 40.3331 39.9311 40.3331 43.9121C38.3085 43.9121 36.3351 43.9121 34.3361 43.9121C34.3361 33.9937 34.3361 24.0837 34.3361 14.1057C44.2928 14.1057 54.2368 14.1057 64.236 14.1057C64.236 20.0389 64.236 25.9934 64.236 32.0117ZM58.1965 20.0857C52.225 20.0857 46.2875 20.0857 40.3416 20.0857C40.3416 22.0762 40.3416 24.0369 40.3416 25.9977C46.3088 25.9977 52.2463 25.9977 58.1965 25.9977C58.1965 24.0199 58.1965 22.0677 58.1965 20.0857Z"
        fill="white"
      />
      <path
        d="M109.001 20.0515C109.001 26.0315 109.001 31.9477 109.001 37.9064C116.95 37.9064 124.886 37.9064 132.853 37.9064C132.853 39.9267 132.853 41.9001 132.853 43.9076C122.939 43.9076 113.016 43.9076 103.063 43.9076C103.063 33.9679 103.063 24.0325 103.063 14.063C112.978 14.063 122.9 14.063 132.853 14.063C132.853 16.0365 132.853 18.01 132.853 20.0472C124.912 20.0515 116.967 20.0515 109.001 20.0515Z"
        fill="white"
      />
      <path
        d="M206.033 14.0547C208.007 14.0547 209.963 14.0547 211.954 14.0547C211.954 18.0272 211.954 21.9911 211.954 25.9849C217.955 25.9849 223.918 25.9849 229.915 25.9849C229.915 22.0209 229.915 18.057 229.915 14.0632C231.897 14.0632 233.849 14.0632 235.831 14.0632C235.831 24.0029 235.831 33.9384 235.831 43.9079C233.883 43.9079 231.931 43.9079 229.945 43.9079C229.945 39.9439 229.945 35.9841 229.945 31.9904C223.948 31.9904 217.989 31.9904 211.983 31.9904C211.983 35.9629 211.983 39.9226 211.983 43.9121C209.972 43.9121 208.011 43.9121 206.037 43.9121C206.033 33.9554 206.033 24.0157 206.033 14.0547Z"
        fill="white"
      />
      <path
        d="M246.456 56.5568C244.38 56.5568 242.36 56.5568 240.318 56.5568C240.318 42.3895 240.318 28.2433 240.318 14.0504C240.454 14.0419 240.586 14.0292 240.714 14.0292C242.47 14.0292 244.227 14.0377 245.983 14.0206C246.345 14.0164 246.468 14.11 246.468 14.497C246.46 28.3794 246.46 42.2661 246.46 56.1485C246.456 56.2676 246.456 56.3867 246.456 56.5568Z"
        fill="white"
      />
      <path
        d="M238.179 4.9187C237.877 1.73731 240.786 -0.189386 243.436 0.0147675C245.839 0.197655 248.153 2.03079 247.872 4.89744C248.429 5.02503 248.999 5.11435 249.548 5.28448C250.215 5.49289 250.866 5.75233 251.513 6.01603C251.721 6.10109 251.908 6.2457 252.083 6.39456C252.772 6.97299 252.763 7.62799 252.057 8.18516C251.355 8.73808 250.522 9.01878 249.671 9.23995C248.918 9.43559 248.148 9.58021 247.374 9.75033C247.349 10.0736 247.421 10.2947 247.791 10.4053C248.161 10.5159 248.472 10.7754 248.489 11.2092C248.506 11.6217 248.233 11.8812 247.902 12.0598C247.153 12.4554 246.379 12.4937 245.601 12.1534C245.282 12.013 245.026 11.7919 245.005 11.4048C244.984 11.0178 245.197 10.7456 245.507 10.5925C245.852 10.4266 245.886 10.2224 245.733 9.96299C243.963 9.96299 242.211 9.96299 240.442 9.96299C240.339 10.2395 240.395 10.4436 240.743 10.5797C241.092 10.7201 241.364 10.9753 241.364 11.3963C241.364 11.8216 241.084 12.0641 240.743 12.2214C239.965 12.583 239.17 12.5915 238.408 12.1661C237.677 11.7578 237.668 11.005 238.421 10.635C238.847 10.4266 238.902 10.1629 238.804 9.75885C238.119 9.61424 237.409 9.51215 236.728 9.3165C235.993 9.10384 235.27 8.84015 234.572 8.52967C234.04 8.29149 233.505 7.95549 233.505 7.27923C233.505 6.60297 234.062 6.29675 234.572 6.02029C235.686 5.41208 236.92 5.16113 238.179 4.9187Z"
        fill="#6CEA6C"
      />
      <path
        d="M238.179 4.9187C237.877 1.73731 240.786 -0.189386 243.436 0.0147675C245.839 0.197655 248.153 2.03079 247.872 4.89744C248.429 5.02503 248.999 5.11435 249.548 5.28448C250.215 5.49289 250.866 5.75233 251.513 6.01603C251.721 6.10109 251.908 6.2457 252.083 6.39456C252.772 6.97299 252.763 7.62799 252.057 8.18516C251.355 8.73808 250.522 9.01878 249.671 9.23995C248.918 9.43559 248.148 9.58021 247.374 9.75033C247.349 10.0736 247.421 10.2947 247.791 10.4053C248.161 10.5159 248.472 10.7754 248.489 11.2092C248.506 11.6217 248.233 11.8812 247.902 12.0598C247.153 12.4554 246.379 12.4937 245.601 12.1534C245.282 12.013 245.026 11.7919 245.005 11.4048C244.984 11.0178 245.197 10.7456 245.507 10.5925C245.852 10.4266 245.886 10.2224 245.733 9.96299C243.963 9.96299 242.211 9.96299 240.442 9.96299C240.339 10.2395 240.395 10.4436 240.743 10.5797C241.092 10.7201 241.364 10.9753 241.364 11.3963C241.364 11.8216 241.084 12.0641 240.743 12.2214C239.965 12.583 239.17 12.5915 238.408 12.1661C237.677 11.7578 237.668 11.005 238.421 10.635C238.847 10.4266 238.902 10.1629 238.804 9.75885C238.119 9.61424 237.409 9.51215 236.728 9.3165C235.993 9.10384 235.27 8.84015 234.572 8.52967C234.04 8.29149 233.505 7.95549 233.505 7.27923C233.505 6.60297 234.062 6.29675 234.572 6.02029C235.686 5.41208 236.92 5.16113 238.179 4.9187Z"
        fill="#6CEA6C"
      />
      <path
        d="M181.752 48.1482C181.752 50.9851 181.752 53.7879 181.752 56.6078C178.928 56.6078 176.125 56.6078 173.288 56.6078C173.288 56.0634 173.288 55.519 173.288 54.932C173.526 54.932 173.777 54.932 174.053 54.932C174.053 53.2265 174.053 51.5635 174.053 49.875C173.79 49.8623 173.539 49.8452 173.279 49.8325C173.279 49.2583 173.279 48.7139 173.279 48.1482C176.108 48.1482 178.911 48.1482 181.752 48.1482ZM180.029 53.252C178.609 53.252 177.235 53.252 175.836 53.252C175.836 53.8092 175.836 54.3409 175.836 54.8938C177.239 54.8938 178.621 54.8938 180.029 54.8938C180.029 54.3451 180.029 53.8134 180.029 53.252ZM180.033 49.8963C178.621 49.8963 177.231 49.8963 175.844 49.8963C175.844 50.4534 175.844 50.9723 175.844 51.4997C177.256 51.4997 178.638 51.4997 180.033 51.4997C180.033 50.9511 180.033 50.4322 180.033 49.8963Z"
        fill="#6CEA6C"
      />
      <path
        d="M192.568 48.1482C192.568 48.7139 192.568 49.2583 192.568 49.8495C190.318 49.8495 188.08 49.8495 185.814 49.8495C185.814 50.4237 185.814 50.9553 185.814 51.5252C188.068 51.5252 190.301 51.5252 192.563 51.5252C192.563 53.2308 192.563 54.898 192.563 56.5993C189.748 56.5993 186.936 56.5993 184.099 56.5993C184.099 56.0421 184.099 55.4977 184.099 54.915C186.358 54.915 188.595 54.915 190.862 54.915C190.862 54.3494 190.862 53.8177 190.862 53.2435C188.608 53.2435 186.371 53.2435 184.108 53.2435C184.108 51.5252 184.108 49.8452 184.108 48.1482C186.936 48.1482 189.739 48.1482 192.568 48.1482Z"
        fill="white"
      />
      <path
        d="M170.906 54.8938C170.906 55.502 170.906 56.0379 170.906 56.5993C168.086 56.5993 165.288 56.5993 162.459 56.5993C162.459 53.788 162.459 50.9894 162.459 48.1567C165.271 48.1567 168.069 48.1567 170.898 48.1567C170.898 48.7139 170.898 49.2583 170.898 49.8453C168.66 49.8453 166.436 49.8453 164.178 49.8453C164.178 50.4152 164.178 50.9426 164.178 51.5125C166.402 51.5125 168.626 51.5125 170.889 51.5125C170.889 52.0909 170.889 52.6353 170.889 53.2265C168.656 53.2265 166.423 53.2265 164.165 53.2265C164.165 53.8007 164.165 54.3239 164.165 54.8938C166.393 54.8938 168.626 54.8938 170.906 54.8938Z"
        fill="#6CEA6C"
      />
      <path
        d="M279.303 54.9277C279.303 54.3407 279.303 53.8176 279.303 53.2434C277.044 53.2434 274.799 53.2434 272.532 53.2434C272.532 51.5209 272.532 49.8536 272.532 48.1523C275.343 48.1523 278.155 48.1523 280.996 48.1523C280.996 48.6968 280.996 49.2412 280.996 49.8238C278.746 49.8238 276.509 49.8238 274.242 49.8238C274.242 50.3938 274.242 50.9254 274.242 51.5081C276.483 51.5081 278.729 51.5081 281 51.5081C281 53.2264 281 54.8937 281 56.5992C278.193 56.5992 275.377 56.5992 272.536 56.5992C272.536 56.0548 272.536 55.5104 272.536 54.9319C274.786 54.9277 277.019 54.9277 279.303 54.9277Z"
        fill="white"
      />
      <path
        d="M259.356 48.144C259.356 50.9682 259.356 53.7668 259.356 56.5994C256.531 56.5994 253.716 56.5994 250.875 56.5994C250.875 53.7965 250.875 50.9852 250.875 48.144C253.682 48.144 256.497 48.144 259.356 48.144ZM257.641 49.8964C255.94 49.8964 254.277 49.8964 252.618 49.8964C252.618 51.5849 252.618 53.2351 252.618 54.8853C254.315 54.8853 255.978 54.8853 257.641 54.8853C257.641 53.2096 257.641 51.5636 257.641 49.8964Z"
        fill="white"
      />
      <path
        d="M203.409 48.1609C203.409 50.985 203.409 53.7836 203.409 56.6077C200.576 56.6077 197.761 56.6077 194.924 56.6077C194.924 53.7921 194.924 50.9935 194.924 48.1609C197.739 48.1609 200.551 48.1609 203.409 48.1609ZM196.642 54.8852C198.339 54.8852 200.019 54.8852 201.686 54.8852C201.686 53.2052 201.686 51.5507 201.686 49.9132C199.989 49.9132 198.318 49.9132 196.642 49.9132C196.642 51.589 196.642 53.2307 196.642 54.8852Z"
        fill="white"
      />
      <path
        d="M270.188 48.1396C270.188 50.9595 270.188 53.7581 270.188 56.595C269.64 56.595 269.095 56.595 268.491 56.595C268.491 54.3621 268.491 52.1206 268.491 49.8537C266.777 49.8537 265.123 49.8537 263.413 49.8537C263.413 52.0994 263.413 54.3408 263.413 56.6077C262.826 56.6077 262.29 56.6077 261.729 56.6077C261.729 53.7879 261.729 50.9765 261.729 48.1396C264.54 48.1396 267.356 48.1396 270.188 48.1396Z"
        fill="white"
      />
      <path
        d="M225.041 56.6078C222.208 56.6078 219.41 56.6078 216.585 56.6078C216.585 53.7837 216.585 50.9851 216.585 48.1567C217.134 48.1567 217.666 48.1567 218.257 48.1567C218.257 50.3939 218.257 52.6354 218.257 54.8981C219.984 54.8981 221.651 54.8981 223.352 54.8981C223.352 52.6524 223.352 50.4194 223.352 48.1567C223.931 48.1567 224.475 48.1567 225.041 48.1567C225.041 50.9724 225.041 53.771 225.041 56.6078Z"
        fill="white"
      />
      <path
        d="M235.891 49.8368C234.751 49.8368 233.649 49.8368 232.492 49.8368C232.492 52.1122 232.492 54.3579 232.492 56.6121C231.901 56.6121 231.365 56.6121 230.787 56.6121C230.787 54.3579 230.787 52.125 230.787 49.841C229.647 49.841 228.55 49.841 227.431 49.841C227.431 49.2583 227.431 48.7224 227.431 48.1567C230.247 48.1567 233.058 48.1567 235.895 48.1567C235.891 48.7054 235.891 49.2371 235.891 49.8368Z"
        fill="white"
      />
      <path
        d="M214.216 54.9064C214.216 55.4934 214.216 56.0378 214.216 56.6077C211.401 56.6077 208.598 56.6077 205.778 56.6077C205.778 53.7879 205.778 50.9893 205.778 48.1609C206.322 48.1609 206.867 48.1609 207.45 48.1609C207.45 50.4066 207.45 52.6352 207.45 54.9064C209.725 54.9064 211.958 54.9064 214.216 54.9064Z"
        fill="white"
      />
      <path
        d="M249.39 3.18335C249.484 3.30244 249.62 3.40877 249.662 3.54062C249.739 3.7788 249.552 3.82983 249.36 3.84685C249.093 3.87237 248.825 3.89363 248.557 3.92766C248.331 3.95743 248.195 3.86386 248.238 3.64695C248.259 3.53211 248.386 3.37475 248.497 3.34497C248.757 3.28118 249.029 3.28118 249.297 3.25566C249.326 3.23439 249.36 3.20887 249.39 3.18335Z"
        fill="white"
      />
      <path
        d="M248.187 2.65186C248.093 2.52851 247.991 2.4392 247.953 2.32436C247.927 2.24781 247.965 2.09469 248.029 2.05641C248.323 1.87352 248.629 1.70339 248.944 1.55878C249.012 1.52901 249.173 1.57579 249.207 1.63534C249.271 1.73741 249.322 1.95859 249.284 1.98836C248.944 2.21803 248.582 2.41793 248.187 2.65186Z"
        fill="white"
      />
      <path
        d="M248.357 0.669774C248.038 0.963244 247.744 1.24396 247.434 1.49489C247.391 1.52892 247.2 1.46087 247.162 1.39282C247.111 1.30776 247.098 1.13338 247.153 1.06107C247.34 0.818642 247.553 0.588966 247.783 0.38056C247.851 0.316762 248.016 0.316759 248.119 0.350784C248.199 0.38481 248.242 0.508153 248.357 0.669774Z"
        fill="white"
      />
    </svg>